<svg id="Capa_1" data-name="Capa 1" xmlns="http://www.w3.org/2000/svg" viewBox="0 0 314.65 314.65">
<title>instagram</title>
<path d="M214.82,80.05h-115A19.09,19.09,0,0,0,80.76,99.12V215.53A19.09,19.09,0,0,0,99.83,234.6h115a19.09,19.09,0,0,0,19.07-19.07V99.12A19.09,19.09,0,0,0,214.82,80.05Zm1,135.48a1,1,0,0,1-1,1h-115a1,1,0,0,1-1-1V99.12a1,1,0,0,1,1-1h115a1,1,0,0,1,1,1Z"
      transform="translate(0)"/>
<rect x="183.68" y="111.65" width="20.69" height="18.98"/>
<circle cx="157.33" cy="164.97" r="20.4"/>
<path d="M189.86,164.88a32.53,32.53,0,1,1-65.07,0l0-14.5H110.29v54h94.08v-54H189.94Z" transform="translate(0)"/>
<path d="M314.65,157.33A157.33,157.33,0,1,0,157.33,314.65,157.33,157.33,0,0,0,314.65,157.33Zm-300.35,0a143,143,0,1,1,143,143A143,143,0,0,1,14.3,157.33Z"
      transform="translate(0)"/>
</svg>