<svg id="Capa_1" data-name="Capa 1" xmlns="http://www.w3.org/2000/svg" viewBox="0 0 512 512">
    <title>linkedin</title>
    <path d="M128.09,383.89h48v-192h-48Zm192-192c-41.09.69-61.31,30.64-64,32v-32h-48v192h48v-112c0-4.11,10.13-37,48-32,20.34,1.33,31.31,28.23,32,32v112l47.81.22V251.19C382.22,232,372.63,192.58,320.09,191.89Zm-168-64a24,24,0,1,0,24,24A24,24,0,0,0,152.09,127.89Z"
          transform="translate(0 0)"/>
    <path d="M512,256C512,114.62,397.38,0,256,0S0,114.62,0,256,114.62,512,256,512,512,397.38,512,256ZM23.27,256C23.27,127.46,127.46,23.27,256,23.27S488.73,127.46,488.73,256,384.54,488.73,256,488.73,23.27,384.54,23.27,256Z"
          transform="translate(0 0)"/>
</svg>