<svg id="Capa_1" data-name="Capa 1" xmlns="http://www.w3.org/2000/svg" viewBox="0 0 512 512">
    <title>youtube</title>
    <path d="M512,256C512,114.62,397.38,0,256,0S0,114.62,0,256,114.62,512,256,512,512,397.38,512,256ZM23.27,256C23.27,127.46,127.46,23.27,256,23.27S488.73,127.46,488.73,256,384.54,488.73,256,488.73,23.27,384.54,23.27,256Z"/>
    <path d="M390.94,174.15c-8-14.23-16.68-16.85-34.36-17.84-17.66-1.2-62.07-1.7-100.54-1.7s-83,.5-100.62,1.68c-17.64,1-26.34,3.61-34.42,17.86-8.24,14.21-12.48,38.69-12.48,81.8v.15c0,42.92,4.24,67.58,12.48,81.65,8.07,14.23,16.76,16.81,34.4,18,17.66,1,62.09,1.64,100.64,1.64s82.88-.61,100.56-1.62c17.68-1.2,26.36-3.78,34.36-18,8.31-14.07,12.52-38.73,12.52-81.65V256C403.48,212.84,399.28,188.36,390.94,174.15ZM219.13,311.3V200.7L311.3,256Z"/>
</svg>